<svg width="294" height="294" viewBox="0 0 294 294" fill="none" xmlns="http://www.w3.org/2000/svg">
<g clip-path="url(#clip0_7697_45197)">
<path d="M223.728 109.337L208.2 97.149C201.506 91.8702 193.096 88.9603 184.543 88.9603L110.438 88.9541C101.886 88.9541 93.5255 91.8704 86.8318 97.1428L71.3032 109.337C70.1035 110.278 69.2853 111.558 68.75 112.942H226.25C225.746 111.558 224.897 110.278 223.728 109.337Z" fill="white"/>
<path d="M71.3002 121.948L86.8288 134.185C93.5225 139.464 101.902 142.374 110.435 142.374H184.54C193.092 142.374 201.49 139.458 208.197 134.185L223.725 121.948C224.888 121.019 225.743 119.746 226.248 118.374H68.7793C69.2838 119.746 70.102 121.038 71.3018 121.948H71.3002Z" fill="white"/>
<path d="M208.2 155.99C201.506 150.711 193.096 147.801 184.543 147.801L110.438 147.795C101.886 147.795 93.5255 150.711 86.8318 155.984L71.3032 168.221C70.1035 169.187 69.2853 170.429 68.75 171.801H226.25C225.746 170.417 224.896 169.168 223.727 168.227L208.2 155.99Z" fill="white"/>
<path d="M71.3002 180.84L86.8288 193.027C93.5225 198.306 101.902 201.216 110.435 201.216H184.54C193.092 201.216 201.49 198.3 208.197 193.027L223.725 180.84C224.888 179.88 225.743 178.637 226.248 177.216H68.7793C69.2838 178.649 70.102 179.898 71.3018 180.84H71.3002Z" fill="white"/>
</g>
<defs>
<clipPath id="clip0_7697_45197">
<rect width="173.25" height="137.025" fill="white" transform="translate(60.875 78.9375)"/>
</clipPath>
</defs>
</svg>
