<svg width="600" height="87" viewBox="0 0 600 87" fill="none" xmlns="http://www.w3.org/2000/svg">
<g clip-path="url(#clip0_5037_628)">
<path d="M103.399 19.3008L93.5395 11.5625C89.2895 8.21088 83.9497 6.36328 78.5195 6.36328L31.4685 6.35938C26.0388 6.35938 20.7305 8.21097 16.4805 11.5586L6.6211 19.3008C5.85938 19.8984 5.3399 20.711 5 21.5899H105C104.68 20.711 104.141 19.8985 103.399 19.3008Z" fill="white"/>
<path d="M6.62013 27.3086L16.4795 35.0781C20.7295 38.4297 26.0498 40.2773 31.4675 40.2773H78.5185C83.9482 40.2773 89.2805 38.4257 93.5385 35.0781L103.398 27.3086C104.136 26.7187 104.679 25.9102 105 25.0391H5.01953C5.33984 25.9102 5.85937 26.7305 6.62113 27.3086H6.62013Z" fill="white"/>
<path d="M93.5395 48.9219C89.2895 45.5703 83.9497 43.7227 78.5195 43.7227L31.4685 43.7188C26.0388 43.7188 20.7305 45.5703 16.4805 48.9179L6.6211 56.6874C5.85938 57.3007 5.3399 58.0897 5 58.9608H105C104.68 58.0819 104.141 57.289 103.398 56.6914L93.5395 48.9219Z" fill="white"/>
<path d="M6.62013 64.6992L16.4795 72.4375C20.7295 75.7891 26.0498 77.6367 31.4675 77.6367H78.5185C83.9482 77.6367 89.2805 75.7851 93.5385 72.4375L103.398 64.6992C104.136 64.0899 104.679 63.3008 105 62.3984H5.01953C5.33984 63.3086 5.85937 64.1015 6.62113 64.6992H6.62013Z" fill="white"/>
</g>
<path d="M143 44.4766V42.5234C143 35.8828 143.326 30.3164 143.977 25.8242C144.628 21.2995 145.751 17.6211 147.346 14.7891C148.941 11.957 151.105 9.79232 153.84 8.29492C156.607 6.79753 160.074 5.78841 164.24 5.26758C168.407 4.71419 173.42 4.4375 179.279 4.4375H198.957C205.663 4.4375 211.311 4.76302 215.9 5.41406C220.523 6.03255 224.234 7.28581 227.033 9.17383C229.865 11.0293 231.916 13.7799 233.186 17.4258C234.455 21.0391 235.09 25.8405 235.09 31.8301H225.715C225.715 27.11 225.292 23.4479 224.445 20.8438C223.599 18.207 222.167 16.3027 220.148 15.1309C218.163 13.959 215.445 13.2428 211.994 12.9824C208.544 12.6895 204.198 12.543 198.957 12.543H179.279C174.624 12.543 170.702 12.6895 167.512 12.9824C164.322 13.2428 161.717 13.8776 159.699 14.8867C157.714 15.8633 156.184 17.4258 155.109 19.5742C154.068 21.7227 153.352 24.6523 152.961 28.3633C152.57 32.0742 152.375 36.7943 152.375 42.5234V44.4766C152.375 50.0104 152.57 54.6003 152.961 58.2461C153.352 61.8919 154.068 64.8053 155.109 66.9863C156.184 69.1673 157.714 70.7949 159.699 71.8691C161.717 72.9434 164.322 73.6432 167.512 73.9688C170.702 74.2943 174.624 74.457 179.279 74.457H198.957C204.198 74.457 208.544 74.3431 211.994 74.1152C215.445 73.8874 218.163 73.2201 220.148 72.1133C222.167 71.0065 223.599 69.1673 224.445 66.5957C225.292 63.9915 225.715 60.3457 225.715 55.6582H235.09C235.09 61.6478 234.455 66.4329 233.186 70.0137C231.916 73.5944 229.865 76.2962 227.033 78.1191C224.234 79.9095 220.523 81.0977 215.9 81.6836C211.311 82.2695 205.663 82.5625 198.957 82.5625H179.279C171.955 82.5625 165.933 82.0579 161.213 81.0488C156.493 80.0723 152.798 78.2494 150.129 75.5801C147.492 72.9108 145.637 69.0697 144.562 64.0566C143.521 59.0436 143 52.5169 143 44.4766Z" fill="white"/>
<path d="M268.691 82.0742C261.335 82.0742 255.54 81.2767 251.309 79.6816C247.077 78.054 244.066 75.3522 242.275 71.5762C240.485 67.7676 239.59 62.5755 239.59 56V24.75H249.014V56C249.014 59.7109 249.307 62.7708 249.893 65.1797C250.511 67.556 251.585 69.4115 253.115 70.7461C254.645 72.0482 256.794 72.9596 259.561 73.4805C262.36 74.0013 265.957 74.2617 270.352 74.2617C276.862 74.2617 281.973 73.7246 285.684 72.6504C289.395 71.5762 292.015 69.8997 293.545 67.6211C295.107 65.3099 295.889 62.3151 295.889 58.6367V24.75H305.264V81H295.889V73.5293C294.521 75.4173 292.796 76.9961 290.713 78.2656C288.63 79.5352 285.846 80.4792 282.363 81.0977C278.88 81.7487 274.323 82.0742 268.691 82.0742Z" fill="white"/>
<path d="M341.795 82.0742C334.959 82.0742 329.458 81.8464 325.291 81.3906C321.157 80.9349 318.016 80.0885 315.867 78.8516C313.751 77.6146 312.319 75.8568 311.57 73.5781C310.854 71.2995 310.496 68.3372 310.496 64.6914H319.48C319.48 66.7422 319.627 68.4023 319.92 69.6719C320.213 70.9089 321.043 71.8691 322.41 72.5527C323.777 73.2038 325.991 73.6595 329.051 73.9199C332.143 74.1478 336.473 74.2617 342.039 74.2617C347.931 74.2617 352.505 74.1478 355.76 73.9199C359.048 73.6595 361.408 73.2038 362.84 72.5527C364.272 71.8691 365.135 70.8926 365.428 69.623C365.753 68.3535 365.916 66.6771 365.916 64.5938C365.916 62.0547 365.688 60.1504 365.232 58.8809C364.777 57.6113 363.702 56.765 362.01 56.3418C360.317 55.8861 357.615 55.6419 353.904 55.6094L331.541 55.3652C325.779 55.3001 321.385 54.8118 318.357 53.9004C315.33 52.9889 313.263 51.3939 312.156 49.1152C311.049 46.804 310.496 43.5326 310.496 39.3008C310.496 35.362 311.098 32.3184 312.303 30.1699C313.54 28.0215 315.46 26.4915 318.064 25.5801C320.669 24.6686 324.054 24.1315 328.221 23.9688C332.387 23.7734 337.417 23.6758 343.309 23.6758C350.242 23.6758 355.743 23.8874 359.812 24.3105C363.914 24.7337 366.974 25.5312 368.992 26.7031C371.043 27.875 372.378 29.584 372.996 31.8301C373.647 34.0436 373.973 36.9408 373.973 40.5215H364.988C364.988 38.4056 364.842 36.7454 364.549 35.541C364.256 34.304 363.458 33.4089 362.156 32.8555C360.887 32.2695 358.803 31.8952 355.906 31.7324C353.042 31.5697 349.005 31.4883 343.797 31.4883C337.872 31.4883 333.266 31.5534 329.979 31.6836C326.691 31.8138 324.314 32.123 322.85 32.6113C321.385 33.0996 320.49 33.8809 320.164 34.9551C319.839 35.9967 319.676 37.4453 319.676 39.3008C319.676 41.1888 319.773 42.6862 319.969 43.793C320.197 44.8672 320.766 45.681 321.678 46.2344C322.589 46.7878 324.07 47.1621 326.121 47.3574C328.204 47.5202 331.102 47.6178 334.812 47.6504L354.1 47.8457C359.894 47.9108 364.288 48.3991 367.283 49.3105C370.311 50.1895 372.361 51.8333 373.436 54.2422C374.542 56.6185 375.096 60.069 375.096 64.5938C375.096 68.6628 374.493 71.8691 373.289 74.2129C372.117 76.5566 370.229 78.2982 367.625 79.4375C365.021 80.5443 361.587 81.2604 357.322 81.5859C353.09 81.9115 347.915 82.0742 341.795 82.0742Z" fill="white"/>
<path d="M379.84 81V6H389.215V32.2207C390.615 30.3327 392.34 28.7539 394.391 27.4844C396.474 26.2148 399.241 25.2708 402.691 24.6523C406.174 24.0013 410.732 23.6758 416.363 23.6758C423.72 23.6758 429.514 24.3919 433.746 25.8242C438.01 27.2565 441.038 29.8118 442.828 33.4902C444.618 37.1686 445.514 42.377 445.514 49.1152V81H436.09V49.1152C436.09 45.2741 435.764 42.1816 435.113 39.8379C434.462 37.4941 433.339 35.7201 431.744 34.5156C430.182 33.3112 428.017 32.5137 425.25 32.123C422.483 31.6999 418.967 31.4883 414.703 31.4883C408.193 31.4883 403.082 32.0254 399.371 33.0996C395.66 34.1738 393.04 35.8665 391.51 38.1777C389.98 40.4564 389.215 43.4349 389.215 47.1133V81H379.84Z" fill="white"/>
<path d="M449.965 81V27.875H459.34V81H449.965ZM449.965 15.375V6H459.34V15.375H449.965Z" fill="white"/>
<path d="M496.701 82.0742C490.419 82.0742 485.08 81.7487 480.686 81.0977C476.291 80.4792 472.743 79.1934 470.041 77.2402C467.339 75.2546 465.37 72.2923 464.133 68.3535C462.896 64.4147 462.277 59.1576 462.277 52.582C462.277 46.2018 462.896 41.0911 464.133 37.25C465.37 33.4089 467.339 30.5117 470.041 28.5586C472.743 26.6055 476.291 25.3034 480.686 24.6523C485.08 24.0013 490.419 23.6758 496.701 23.6758C503.016 23.6758 508.355 24.0013 512.717 24.6523C517.111 25.3034 520.66 26.6055 523.361 28.5586C526.063 30.5117 528.033 33.4089 529.27 37.25C530.507 41.0911 531.125 46.2018 531.125 52.582C531.125 59.1576 530.507 64.4147 529.27 68.3535C528.033 72.2923 526.063 75.2546 523.361 77.2402C520.66 79.1934 517.111 80.4792 512.717 81.0977C508.355 81.7487 503.016 82.0742 496.701 82.0742ZM521.75 52.582C521.75 47.9271 521.506 44.1999 521.018 41.4004C520.562 38.6009 519.536 36.5013 517.941 35.1016C516.346 33.6693 513.856 32.709 510.471 32.2207C507.118 31.7324 502.528 31.4883 496.701 31.4883C490.907 31.4883 486.317 31.7324 482.932 32.2207C479.546 32.709 477.056 33.6693 475.461 35.1016C473.866 36.5013 472.824 38.6009 472.336 41.4004C471.88 44.1999 471.652 47.9271 471.652 52.582C471.652 57.3997 471.88 61.2572 472.336 64.1543C472.824 67.0514 473.866 69.2324 475.461 70.6973C477.056 72.1296 479.546 73.0898 482.932 73.5781C486.317 74.0339 490.907 74.2617 496.701 74.2617C502.528 74.2617 507.118 74.0339 510.471 73.5781C513.856 73.0898 516.346 72.1296 517.941 70.6973C519.536 69.2324 520.562 67.0514 521.018 64.1543C521.506 61.2572 521.75 57.3997 521.75 52.582Z" fill="white"/>
<path d="M534.258 81V24.75H543.633V32.2207C545.033 30.3327 546.758 28.7539 548.809 27.4844C550.892 26.2148 553.659 25.2708 557.109 24.6523C560.592 24.0013 565.15 23.6758 570.781 23.6758C578.138 23.6758 583.932 24.3919 588.164 25.8242C592.428 27.2565 595.456 29.8118 597.246 33.4902C599.036 37.1686 599.932 42.377 599.932 49.1152V81H590.508V49.1152C590.508 45.2741 590.182 42.1816 589.531 39.8379C588.88 37.4941 587.757 35.7201 586.162 34.5156C584.6 33.3112 582.435 32.5137 579.668 32.123C576.901 31.6999 573.385 31.4883 569.121 31.4883C562.611 31.4883 557.5 32.0254 553.789 33.0996C550.078 34.1738 547.458 35.8665 545.928 38.1777C544.398 40.4564 543.633 43.4349 543.633 47.1133V81H534.258Z" fill="white"/>
<defs>
<clipPath id="clip0_5037_628">
<rect width="110" height="87" fill="white"/>
</clipPath>
</defs>
</svg>
